<svg width="390" height="730" viewBox="0 0 390 730" fill="none" xmlns="http://www.w3.org/2000/svg">
<path d="M-30 267.7C-30 143.925 70.9598 43.586 195.5 43.586C320.04 43.586 421 143.925 421 267.7C421 391.475 320.04 491.814 195.5 491.814C70.9598 491.814 -30 391.475 -30 267.7Z" fill="url(#paint0_linear_257_1772)"/>
<path d="M-30 505.674C-30 381.9 70.9598 281.561 195.5 281.561C320.04 281.561 421 381.9 421 505.674C421 629.449 320.04 729.788 195.5 729.788C70.9598 729.788 -30 629.449 -30 505.674Z" fill="url(#paint1_linear_257_1772)"/>
<path d="M-30 53.9076C-30 -69.8671 70.9598 -170.206 195.5 -170.206C320.04 -170.206 421 -69.8671 421 53.9076C421 177.682 320.04 278.021 195.5 278.021C70.9598 278.021 -30 177.682 -30 53.9076Z" fill="url(#paint2_linear_257_1772)"/>
<path d="M-30 -159.886C-30 -283.661 70.9598 -384 195.5 -384C320.04 -384 421 -283.661 421 -159.886C421 -36.1114 320.04 64.2278 195.5 64.2278C70.9598 64.2278 -30 -36.1114 -30 -159.886Z" fill="url(#paint3_linear_257_1772)"/>
<defs>
<linearGradient id="paint0_linear_257_1772" x1="193.398" y1="452.375" x2="172.636" y2="15.7734" gradientUnits="userSpaceOnUse">
<stop stop-color="#001F61"/>
<stop offset="1" stop-color="#8399E9"/>
</linearGradient>
<linearGradient id="paint1_linear_257_1772" x1="193.398" y1="690.349" x2="172.636" y2="253.748" gradientUnits="userSpaceOnUse">
<stop stop-color="#001F61"/>
<stop offset="1" stop-color="#8399E9"/>
</linearGradient>
<linearGradient id="paint2_linear_257_1772" x1="193.398" y1="238.582" x2="172.636" y2="-198.019" gradientUnits="userSpaceOnUse">
<stop stop-color="#001F61"/>
<stop offset="1" stop-color="#8399E9"/>
</linearGradient>
<linearGradient id="paint3_linear_257_1772" x1="193.398" y1="24.7887" x2="172.636" y2="-411.813" gradientUnits="userSpaceOnUse">
<stop stop-color="#001F61"/>
<stop offset="1" stop-color="#8399E9"/>
</linearGradient>
</defs>
</svg>
