<svg width="49" height="49" viewBox="0 0 49 49" fill="none" xmlns="http://www.w3.org/2000/svg">
<rect x="1.26923" y="1.26923" width="46.4615" height="46.4615" rx="3.23077" fill="#F1F3F7" stroke="#6D758F" stroke-width="1.53846"/>
<mask id="mask0_43_1194" style="mask-type:alpha" maskUnits="userSpaceOnUse" x="2" y="2" width="45" height="45">
<rect x="2.18091" y="2.34961" width="44.6131" height="44.6024" rx="4" fill="#E3EFFF"/>
</mask>
<g mask="url(#mask0_43_1194)">
<line x1="33.3207" y1="0.5" x2="33.3207" y2="50.5481" stroke="#B4B9C9" stroke-width="1.02564"/>
<line x1="41.6283" y1="0.5" x2="41.6283" y2="50.5481" stroke="#B4B9C9" stroke-width="1.02564"/>
<line x1="25.0131" y1="0.5" x2="25.0131" y2="50.5481" stroke="#B4B9C9" stroke-width="1.02564"/>
<line x1="8.39759" y1="0.5" x2="8.39759" y2="50.5481" stroke="#B4B9C9" stroke-width="1.02564"/>
<line x1="16.7052" y1="0.5" x2="16.7052" y2="50.5481" stroke="#B4B9C9" stroke-width="1.02564"/>
<line x1="-0.523926" y1="16.7035" x2="49.5242" y2="16.7035" stroke="#B4B9C9" stroke-width="1.02564"/>
<line x1="-0.523926" y1="8.39587" x2="49.5242" y2="8.39587" stroke="#B4B9C9" stroke-width="1.02564"/>
<line x1="-0.523926" y1="25.0112" x2="49.5242" y2="25.0112" stroke="#B4B9C9" stroke-width="1.02564"/>
<line x1="-0.523926" y1="41.6266" x2="49.5242" y2="41.6266" stroke="#B4B9C9" stroke-width="1.02564"/>
<line x1="-0.523926" y1="33.319" x2="49.5242" y2="33.319" stroke="#B4B9C9" stroke-width="1.02564"/>
<rect x="1.91211" y="2.03455" width="45.0024" height="44.9916" rx="4" fill="url(#paint0_radial_43_1194)"/>
</g>
<g filter="url(#filter0_d_43_1194)">
<path d="M20 14H15.9091C14.8547 14 14 14.8547 14 15.9091C14 26.4527 22.5473 35 33.0909 35C34.1452 35 35 34.1452 35 33.0909V28.9999L30.5001 26L28.1666 28.3333C27.7614 28.7387 27.1557 28.8647 26.6465 28.6017C25.7829 28.1554 24.3814 27.3172 23 26C21.5856 24.6513 20.7569 23.1981 20.341 22.3189C20.1079 21.826 20.2428 21.2572 20.6283 20.8717L23 18.5L20 14Z" fill="white" stroke="#0E387A" stroke-width="1.23077" stroke-linecap="round" stroke-linejoin="round"/>
<path d="M15.9092 14H20.0001L23.0001 18.5L20.6284 20.8717L15.9092 14Z" fill="#B4B9C9" stroke="#0E387A" stroke-width="1.23077" stroke-linecap="round" stroke-linejoin="round"/>
<path d="M34.9999 33.0909C34.9999 34.1453 34.1451 35 33.0908 35L28.1665 28.3333L30.5 26L34.9999 29V33.0909Z" fill="#B4B9C9" stroke="#0E387A" stroke-width="1.23077" stroke-linecap="round" stroke-linejoin="round"/>
</g>
<defs>
<filter id="filter0_d_43_1194" x="9.38452" y="10.3846" width="30.231" height="30.2307" filterUnits="userSpaceOnUse" color-interpolation-filters="sRGB">
<feFlood flood-opacity="0" result="BackgroundImageFix"/>
<feColorMatrix in="SourceAlpha" type="matrix" values="0 0 0 0 0 0 0 0 0 0 0 0 0 0 0 0 0 0 127 0" result="hardAlpha"/>
<feOffset dy="1"/>
<feGaussianBlur stdDeviation="2"/>
<feComposite in2="hardAlpha" operator="out"/>
<feColorMatrix type="matrix" values="0 0 0 0 0.0969792 0 0 0 0 0.127894 0 0 0 0 0.2375 0 0 0 0.08 0"/>
<feBlend mode="normal" in2="BackgroundImageFix" result="effect1_dropShadow_43_1194"/>
<feBlend mode="normal" in="SourceGraphic" in2="effect1_dropShadow_43_1194" result="shape"/>
</filter>
<radialGradient id="paint0_radial_43_1194" cx="0" cy="0" r="1" gradientUnits="userSpaceOnUse" gradientTransform="translate(24.4133 24.5304) rotate(90) scale(22.4958 22.5012)">
<stop stop-color="#F6FAFD" stop-opacity="0.28"/>
<stop offset="1" stop-color="#F6FAFD"/>
</radialGradient>
</defs>
</svg>
