<svg width="12" height="12" viewBox="0 0 12 12" fill="none" xmlns="http://www.w3.org/2000/svg">
<path d="M5.7999 1.61738C7.23123 1.61738 7.42641 1.61738 8.01195 1.61738C8.53243 1.61738 8.79267 1.7475 8.98785 1.81256C9.24809 1.94268 9.44328 2.00775 9.63846 2.20293C9.83364 2.39811 9.96376 2.59329 10.0288 2.85353C10.0939 3.04871 10.1589 3.30895 10.224 3.82943C10.224 4.41497 10.224 4.54509 10.224 6.04148C10.224 7.53787 10.224 7.66799 10.224 8.25353C10.224 8.77401 10.0939 9.03425 10.0288 9.22943C9.8987 9.48967 9.83364 9.68485 9.63846 9.88003C9.44328 10.0752 9.24809 10.2053 8.98785 10.2704C8.79267 10.3355 8.53243 10.4005 8.01195 10.4656C7.42641 10.4656 7.29629 10.4656 5.7999 10.4656C4.30352 10.4656 4.1734 10.4656 3.58785 10.4656C3.06737 10.4656 2.80713 10.3355 2.61195 10.2704C2.35171 10.1403 2.15653 10.0752 1.96135 9.88003C1.76617 9.68485 1.63605 9.48967 1.57099 9.22943C1.50593 9.03425 1.44087 8.77401 1.37581 8.25353C1.37581 7.66799 1.37581 7.53787 1.37581 6.04148C1.37581 4.54509 1.37581 4.41497 1.37581 3.82943C1.37581 3.30895 1.50593 3.04871 1.57099 2.85353C1.70111 2.59329 1.76617 2.39811 1.96135 2.20293C2.15653 2.00775 2.35171 1.87762 2.61195 1.81256C2.80713 1.7475 3.06737 1.68244 3.58785 1.61738C4.1734 1.61738 4.36858 1.61738 5.7999 1.61738ZM5.7999 0.641479C4.30352 0.641479 4.1734 0.641479 3.58785 0.641479C3.00231 0.641479 2.61195 0.7716 2.28665 0.901721C1.96135 1.03184 1.63605 1.22702 1.31075 1.55232C0.985445 1.87762 0.855324 2.13787 0.660144 2.52823C0.530023 2.85353 0.464963 3.24389 0.399902 3.82943C0.399902 4.41497 0.399902 4.61015 0.399902 6.04148C0.399902 7.53787 0.399902 7.66799 0.399902 8.25353C0.399902 8.83907 0.530023 9.22943 0.660144 9.55473C0.790264 9.88003 0.985445 10.2053 1.31075 10.5306C1.63605 10.8559 1.89629 10.9861 2.28665 11.1812C2.61195 11.3114 3.00231 11.3764 3.58785 11.4415C4.1734 11.4415 4.36858 11.4415 5.7999 11.4415C7.23123 11.4415 7.42641 11.4415 8.01195 11.4415C8.59749 11.4415 8.98785 11.3114 9.31316 11.1812C9.63846 11.0511 9.96376 10.8559 10.2891 10.5306C10.6144 10.2053 10.7445 9.94509 10.9397 9.55473C11.0698 9.22943 11.1348 8.83907 11.1999 8.25353C11.1999 7.66799 11.1999 7.47281 11.1999 6.04148C11.1999 4.61015 11.1999 4.41497 11.1999 3.82943C11.1999 3.24389 11.0698 2.85353 10.9397 2.52823C10.8095 2.20293 10.6144 1.87762 10.2891 1.55232C9.96376 1.22702 9.70352 1.0969 9.31316 0.901721C8.98785 0.7716 8.59749 0.70654 8.01195 0.641479C7.42641 0.641479 7.29629 0.641479 5.7999 0.641479Z" fill="#3A4F39"/>
<path d="M5.7999 3.24389C4.23846 3.24389 3.00231 4.48003 3.00231 6.04148C3.00231 7.60293 4.23846 8.83907 5.7999 8.83907C7.36135 8.83907 8.59749 7.60293 8.59749 6.04148C8.59749 4.48003 7.36135 3.24389 5.7999 3.24389ZM5.7999 7.86317C4.824 7.86317 3.97822 7.08244 3.97822 6.04148C3.97822 5.06558 4.75894 4.21979 5.7999 4.21979C6.77581 4.21979 7.62159 5.00052 7.62159 6.04148C7.62159 7.01738 6.77581 7.86317 5.7999 7.86317Z" fill="#3A4F39"/>
<path d="M8.66255 3.82943C9.02187 3.82943 9.31316 3.53815 9.31316 3.17883C9.31316 2.81951 9.02187 2.52823 8.66255 2.52823C8.30324 2.52823 8.01195 2.81951 8.01195 3.17883C8.01195 3.53815 8.30324 3.82943 8.66255 3.82943Z" fill="#3A4F39"/>
</svg>
