<svg width="48" height="48" viewBox="0 0 48 48" fill="none" xmlns="http://www.w3.org/2000/svg">
<rect x="1" y="1" width="46" height="46" rx="23" stroke="white" stroke-width="2"/>
<path d="M22.5999 24.71C22.5061 24.617 22.4317 24.5064 22.381 24.3846C22.3302 24.2627 22.3041 24.132 22.3041 24C22.3041 23.868 22.3302 23.7373 22.381 23.6154C22.4317 23.4936 22.5061 23.383 22.5999 23.29L27.1899 18.71C27.2836 18.617 27.358 18.5064 27.4088 18.3846C27.4595 18.2627 27.4857 18.132 27.4857 18C27.4857 17.868 27.4595 17.7373 27.4088 17.6154C27.358 17.4936 27.2836 17.383 27.1899 17.29C27.0025 17.1037 26.749 16.9992 26.4849 16.9992C26.2207 16.9992 25.9672 17.1037 25.7799 17.29L21.1899 21.88C20.6281 22.4425 20.3125 23.205 20.3125 24C20.3125 24.795 20.6281 25.5575 21.1899 26.12L25.7799 30.71C25.9661 30.8947 26.2175 30.9989 26.4799 31C26.6115 31.0008 26.7419 30.9755 26.8638 30.9258C26.9856 30.876 27.0964 30.8027 27.1899 30.71C27.2836 30.617 27.358 30.5064 27.4088 30.3846C27.4595 30.2627 27.4857 30.132 27.4857 30C27.4857 29.868 27.4595 29.7373 27.4088 29.6154C27.358 29.4936 27.2836 29.383 27.1899 29.29L22.5999 24.71Z" fill="white"/>
</svg>
