<svg width="101" height="23" viewBox="0 0 101 23" fill="none" xmlns="http://www.w3.org/2000/svg">
<path d="M24.5178 16.031L25.1362 15.9033C25.6834 15.7573 25.8293 15.6844 25.8293 14.5918V6.00424C25.8293 4.90982 25.6652 4.81862 25.1362 4.69276L24.5178 4.56508V4.05435H34.3988L34.5812 7.68235H34.0157C33.7313 7.00974 33.3896 6.36286 32.9942 5.74888C32.4105 4.90982 32.0275 4.83686 30.7707 4.83686C30.2116 4.81914 29.6528 4.88055 29.1108 5.01926V9.66873H29.6033C30.8802 9.66873 31.172 9.5228 31.3909 9.12152C31.6392 8.68701 31.8287 8.22146 31.9545 7.73707H32.5017V12.4394H31.9545C31.8133 11.9363 31.6246 11.4477 31.3909 10.9802C31.172 10.5242 30.9349 10.433 29.6033 10.433H29.1108V13.9333C29.1108 15.5549 29.1655 15.7373 30.9349 15.7373C32.3941 15.7373 32.6842 15.5549 33.2861 14.6629C33.6144 14.1704 33.961 13.4043 34.4353 12.2552H35.019L34.7636 16.5453H24.5361L24.5178 16.0346V16.031Z" fill="#B4B9C9"/>
<path d="M36.5518 9.19475C36.1323 8.17329 35.9316 7.91792 35.4756 7.77383L35.1309 7.66438V7.19013H40.5447V7.66438L40.0522 7.79207C39.6691 7.90151 39.4867 8.08391 39.4867 8.52168C39.5124 8.85473 39.5925 9.18131 39.7238 9.48842L41.2378 13.6454H41.329L42.7883 9.48842C42.9255 9.17048 43.0057 8.83091 43.0254 8.4852C43.0254 8.08573 42.843 7.88509 42.4599 7.79389L41.9675 7.66621V7.19196H45.3037V7.66621L44.9589 7.77565C44.4847 7.93981 44.284 8.21159 43.8462 9.39721L41.0591 16.5456H39.5269L36.5518 9.19475Z" fill="#B4B9C9"/>
<path d="M44.8872 11.8203C44.8872 8.68481 47.2019 6.95381 49.5896 6.95381C52.0685 6.95381 53.619 8.19232 53.6737 11.4573H47.7254C47.7802 14.4105 48.891 15.2112 50.7516 15.2112C51.6742 15.2069 52.5817 14.9764 53.3946 14.54V15.1401C52.9015 15.6545 52.3102 16.0649 51.6557 16.3469C51.0012 16.6288 50.2968 16.7767 49.5842 16.7817C46.4486 16.7434 44.8872 14.8829 44.8872 11.8203ZM47.7309 10.7642L50.8118 10.6C50.8118 8.42945 50.5199 7.6287 49.4437 7.6287C48.5353 7.6287 47.8057 8.50241 47.7254 10.7642H47.7309Z" fill="#B4B9C9"/>
<path d="M58.4276 8.33786C58.9365 7.79065 59.9763 6.89869 61.1801 6.89869C61.5436 6.9118 61.8879 7.06542 62.1404 7.32721C62.3929 7.589 62.5341 7.93855 62.5341 8.30229C62.5341 8.66602 62.3929 9.01557 62.1404 9.27737C61.8879 9.53916 61.5436 9.69278 61.1801 9.70588C60.9085 9.70649 60.6427 9.6273 60.4157 9.47813C60.1887 9.32896 60.0105 9.11639 59.9033 8.86683C59.8482 8.78304 59.772 8.7153 59.6823 8.67045C59.5926 8.62561 59.4926 8.60526 59.3925 8.61146C59.0642 8.61146 58.683 8.84859 58.4459 9.06747V14.9044C58.4459 15.7434 58.5188 15.8346 59.0642 15.9258L59.6662 16.0535V16.546H54.4712V16.0535L54.9455 15.9258C55.5456 15.7617 55.6186 15.6705 55.6186 14.9044V9.30459C55.6186 8.5385 55.5274 8.48378 55.0184 8.13721L54.4165 7.73775V7.37294L58.2033 6.93517L58.4039 7.0811L58.3674 8.31962H58.4222" fill="#B4B9C9"/>
<path d="M63.1285 16.0491L63.6027 15.9214C64.2046 15.7572 64.2776 15.666 64.2776 14.8999V9.3038C64.2776 8.53771 64.1864 8.48298 63.6757 8.13642L63.0737 7.73695V7.37215L66.866 6.93438L67.0666 7.06206L67.0301 8.20938H67.1031C68.0516 7.53631 69.2354 6.93256 70.5487 6.93256C72.0809 6.93256 72.9 7.71689 72.9 9.33845V14.8799C72.9 15.6642 72.9729 15.7554 73.5566 15.9013L74.0309 16.029V16.5215H69.0184V16.029L69.4561 15.9196C70.0033 15.7736 70.0581 15.7189 70.0581 14.8799V10.0517C70.0581 8.95723 69.6568 8.61067 68.8177 8.61067C68.2519 8.62786 67.6897 8.70738 67.1414 8.84779V14.9036C67.1414 15.7609 67.1961 15.7974 67.7433 15.9433L68.1811 16.0527V16.5452H63.1668V16.0527L63.1285 16.0491Z" fill="#B4B9C9"/>
<path d="M74.3784 11.874C74.3784 8.42843 76.8208 6.94914 79.245 6.94914C81.8534 6.94914 84.1317 8.51598 84.1317 11.7792C84.1317 15.2248 81.7257 16.7387 79.245 16.7387C76.6384 16.7424 74.3784 15.1737 74.3784 11.874ZM81.1275 11.9652C81.1275 8.33723 80.4343 7.64592 79.1939 7.64592C78.0648 7.64592 77.3899 8.46491 77.3899 11.5639C77.3899 15.2467 77.9919 16.0492 79.3034 16.0492C80.3759 16.0492 81.1238 15.4108 81.1238 11.9652H81.1275Z" fill="#B4B9C9"/>
<path d="M85.7016 14.2638V8.2445H84.5725V7.81038C85.2623 7.55565 85.8877 7.15239 86.4043 6.62914C86.9209 6.10589 87.3162 5.47546 87.5622 4.78248H88.5836V7.19021H90.9713L90.7342 8.24632H88.5836V14.0832C88.5836 14.9752 88.8572 15.34 89.7492 15.34C90.1853 15.3283 90.6191 15.2733 91.0443 15.1758V15.6866C90.2691 16.3941 89.2497 16.7733 88.2006 16.7445C86.5772 16.7427 85.7016 16.0313 85.7016 14.2638Z" fill="#B4B9C9"/>
<path d="M91.4006 11.8203C91.4006 8.68481 93.7154 6.95381 96.1031 6.95381C98.5838 6.95381 100.132 8.19232 100.187 11.4573H94.2498C94.3045 14.4105 95.4172 15.2112 97.2759 15.2112C98.1986 15.2069 99.1061 14.9764 99.919 14.54V15.1401C99.4259 15.6545 98.8346 16.0649 98.1801 16.3469C97.5256 16.6288 96.8212 16.7767 96.1085 16.7817C92.9547 16.7434 91.4006 14.8829 91.4006 11.8203ZM94.2261 10.7642L97.307 10.6C97.307 8.42945 97.0151 7.6287 95.9389 7.6287C95.0342 7.6287 94.3045 8.50241 94.2316 10.7642H94.2261Z" fill="#B4B9C9"/>
<path d="M6.24192 5.45379C6.263 5.74745 6.17752 6.03886 6.00115 6.27461C5.76402 6.49531 5.39373 6.51355 5.18032 6.51355H2.84552C2.39525 6.50083 1.94463 6.51301 1.49571 6.55003C1.35143 6.57638 1.21067 6.61922 1.07618 6.67772C1.04882 6.68866 1.03969 6.67772 1.05794 6.65948L6.38785 1.2421C6.40609 1.22386 6.41703 1.23115 6.40609 1.26034C6.34759 1.39482 6.30475 1.53559 6.27841 1.67986C6.24138 2.12878 6.2292 2.57939 6.24192 3.02965V5.45379ZM11.1943 21.8354C10.7167 21.5347 10.3419 21.0957 10.1199 20.5769C9.95406 20.158 9.89367 19.7048 9.94401 19.2571C9.99434 18.8094 10.1539 18.3809 10.4086 18.0093C10.6633 17.6377 11.0054 17.3344 11.4047 17.1259C11.8041 16.9175 12.2486 16.8103 12.6991 16.8139C12.807 16.8141 12.9139 16.8357 13.0134 16.8775C13.1129 16.9192 13.2032 16.9803 13.279 17.0571C13.3548 17.1339 13.4147 17.225 13.4551 17.3251C13.4955 17.4251 13.5157 17.5322 13.5145 17.6402C13.5129 17.7865 13.4728 17.9298 13.3982 18.0556C13.3236 18.1815 13.2171 18.2855 13.0895 18.357C12.9924 18.4087 12.8877 18.4444 12.7794 18.4628C12.5664 18.479 12.3604 18.5466 12.1793 18.6598C12.0797 18.7345 11.9986 18.8311 11.9423 18.9421C11.886 19.0531 11.856 19.1756 11.8546 19.3C11.8539 19.5664 11.9589 19.8222 12.1464 20.0114C12.309 20.1745 12.5023 20.3037 12.7153 20.3914C12.9282 20.479 13.1565 20.5235 13.3868 20.5221C13.6815 20.5224 13.9733 20.4645 14.2457 20.3518C14.518 20.2392 14.7654 20.0739 14.9738 19.8655C15.1822 19.6572 15.3474 19.4097 15.4601 19.1374C15.5727 18.8651 15.6306 18.5733 15.6304 18.2786C15.6304 17.1659 14.8825 16.1809 13.8975 15.7432C13.7029 15.6639 13.5014 15.6028 13.2956 15.5608C13.022 15.506 12.7666 15.4696 12.7484 15.4696C11.9823 15.3784 10.067 14.7764 9.9393 13.0801C9.9393 13.0801 9.37384 15.6337 8.24292 16.3269C8.10939 16.392 7.96855 16.441 7.82339 16.4728C7.69136 16.5021 7.55714 16.5204 7.42209 16.5275C5.57979 16.6369 3.62804 16.0532 2.27823 14.667C2.27823 14.667 1.3662 13.9191 0.891946 11.8215C0.782502 11.3108 0.563614 10.3987 0.43593 9.54145C0.381208 9.23136 0.362967 8.99424 0.344727 8.77536C0.344727 7.8907 0.891946 7.27965 1.57597 7.19392H1.68359H5.29341C5.93183 7.19392 6.29665 7.02975 6.53377 6.81087C6.84387 6.51902 6.91683 6.0995 6.91683 5.60701V1.87139C6.91683 1.84585 6.91683 1.78566 6.91683 1.76377C7.00256 1.08158 7.61362 0.532547 8.49829 0.532547H8.93607C9.13814 0.533695 9.33988 0.548932 9.53983 0.578148C9.70521 0.601964 9.86905 0.635462 10.0305 0.67847C11.1432 0.955723 11.3803 2.08298 11.3803 2.08298L14.5359 2.63019C15.5392 2.81259 18.0199 2.97675 18.4942 5.47568C19.6068 11.422 18.9319 17.186 18.8772 17.186C18.0929 22.804 13.4233 22.5304 13.4233 22.5304C12.6282 22.5224 11.853 22.2807 11.1943 21.8354ZM15.3987 9.87525C14.795 9.81323 14.2824 10.0576 14.0945 10.5173C14.054 10.596 14.0363 10.6845 14.0434 10.7727C14.0512 10.7936 14.0636 10.8126 14.0797 10.828C14.0958 10.8435 14.1152 10.8552 14.1365 10.862C14.4964 10.9881 14.8721 11.0636 15.2528 11.0864C15.78 11.1502 16.1502 11.1849 16.3892 11.1338C16.4115 11.132 16.4331 11.1252 16.4524 11.1138C16.4717 11.1024 16.4881 11.0868 16.5005 11.0682C16.5294 10.9841 16.5333 10.8935 16.5114 10.8073C16.433 10.3185 15.9988 9.96463 15.3987 9.88254V9.87525Z" fill="#B4B9C9"/>
</svg>
