<svg width="92" height="27" viewBox="0 0 92 27" fill="none" xmlns="http://www.w3.org/2000/svg">
<path d="M10.5108 4.72043V12.0186H3.80586V4.72043H0.624756V22.1423H3.80672V15.0809H10.5099V22.1423H13.6928V4.72043H10.5108ZM23.8776 16.5112C23.8776 17.2095 23.6002 17.8792 23.1065 18.373C22.6127 18.8668 21.943 19.1442 21.2447 19.1442C20.5464 19.1442 19.8766 18.8668 19.3829 18.373C18.8891 17.8792 18.6117 17.2095 18.6117 16.5112V9.04855H15.5933V16.5112C15.5933 18.0086 16.1882 19.4446 17.2469 20.5033C18.3057 21.5621 19.7417 22.1569 21.2391 22.1569C22.7364 22.1569 24.1724 21.5621 25.2312 20.5033C26.29 19.4446 26.8848 18.0086 26.8848 16.5112V9.04855H23.8776V16.5112ZM46.2427 9.81755C46.2427 8.2873 47.2545 7.80247 48.3629 7.80247C49.2567 7.80247 50.4365 8.48278 51.209 9.30775L53.1853 6.97749C52.1984 5.64272 50.1971 4.72043 48.5583 4.72043C45.2834 4.72043 42.9152 6.6382 42.9152 9.81755C42.9152 15.7164 50.1248 13.8443 50.1248 17.1459C50.1248 18.1638 49.1362 19.0628 48.0046 19.0628C46.2194 19.0628 45.6407 18.1905 44.8209 17.2673L42.6267 19.5485C44.0304 21.2708 45.7613 22.1457 47.8341 22.1457C50.9455 22.1457 53.448 20.2047 53.448 17.17C53.448 10.6219 46.2375 12.6568 46.2375 9.81755M90.8453 19.3591C89.0619 19.3591 88.5547 18.5875 88.5547 17.406V12.1745H91.3276V9.5239H88.5547V6.02679L85.4941 7.40032V18.0561C85.4941 20.7817 87.3749 22.1552 89.9532 22.1552C90.3579 22.1621 90.7627 22.1294 91.1605 22.0587L91.9071 19.31C91.5704 19.3332 91.1838 19.3565 90.8453 19.3565M35.3672 9.13552C33.8722 9.13552 32.8285 9.56954 31.8192 10.559V4.82463H28.7966V15.4538C28.7966 19.4323 31.6728 22.1586 34.9056 22.1586C38.4914 22.1586 41.6458 19.384 41.6458 15.6484C41.6458 11.9592 38.7429 9.13811 35.3672 9.13811M35.3482 19.1162C34.8977 19.1162 34.4517 19.0275 34.0355 18.8551C33.6193 18.6827 33.2411 18.43 32.9226 18.1115C32.604 17.7929 32.3513 17.4148 32.1789 16.9986C32.0065 16.5824 31.9178 16.1363 31.9178 15.6858C31.9178 15.2353 32.0065 14.7893 32.1789 14.3731C32.3513 13.9569 32.604 13.5787 32.9226 13.2602C33.2411 12.9417 33.6193 12.689 34.0355 12.5166C34.4517 12.3442 34.8977 12.2555 35.3482 12.2555C36.258 12.2555 37.1306 12.6169 37.7739 13.2602C38.4172 13.9035 38.7786 14.776 38.7786 15.6858C38.7786 16.5956 38.4172 17.4682 37.7739 18.1115C37.1306 18.7548 36.258 19.1162 35.3482 19.1162ZM68.1944 15.4899C68.1944 11.7474 65.0469 8.97966 61.4541 8.97966C58.2222 8.97966 55.3451 11.7052 55.3451 15.6845V26.3197H58.3677V20.5776C59.3753 21.5653 60.4207 22.001 61.914 22.001C65.2897 22.001 68.1935 19.1799 68.1935 15.4899M65.3319 15.452C65.3319 16.3618 64.9705 17.2344 64.3272 17.8777C63.6838 18.521 62.8113 18.8824 61.9015 18.8824C60.9917 18.8824 60.1191 18.521 59.4758 17.8777C58.8325 17.2344 58.4711 16.3618 58.4711 15.452C58.4711 14.5422 58.8325 13.6697 59.4758 13.0264C60.1191 12.3831 60.9917 12.0217 61.9015 12.0217C62.8113 12.0217 63.6838 12.3831 64.3272 13.0264C64.9705 13.6697 65.3319 14.5422 65.3319 15.452Z" fill="#B4B9C9"/>
<path d="M77.9306 8.71752V5.68025C78.332 5.49267 78.6718 5.19495 78.9105 4.82174C79.1493 4.44853 79.2771 4.0152 79.2792 3.57217V3.50241C79.2792 2.21069 78.232 1.16354 76.9403 1.16354H76.8705C76.2502 1.16354 75.6553 1.40996 75.2167 1.84858C74.778 2.2872 74.5316 2.88211 74.5316 3.50241V3.57217C74.5337 4.0152 74.6615 4.44853 74.9002 4.82174C75.139 5.19495 75.4788 5.49267 75.8802 5.68025V8.71752C74.7266 8.89415 73.6402 9.37244 72.7309 10.104L64.401 3.61609C64.4604 3.40166 64.4914 3.18121 64.4949 2.95989C64.4959 2.43864 64.3423 1.9288 64.0535 1.49486C63.7647 1.06091 63.3538 0.72236 62.8725 0.522021C62.3913 0.321683 61.8615 0.268561 61.3501 0.369374C60.8387 0.470187 60.3687 0.720406 59.9995 1.08838C59.6303 1.45636 59.3785 1.92556 59.276 2.43663C59.1736 2.9477 59.225 3.47769 59.4237 3.95955C59.6225 4.44142 59.9597 4.85351 60.3927 5.1437C60.8257 5.43389 61.335 5.58915 61.8563 5.58983C62.3123 5.58768 62.7598 5.46594 63.1541 5.23676L71.3565 11.6196C70.6197 12.7328 70.2353 14.0421 70.2534 15.3769C70.2715 16.7118 70.6913 18.0102 71.4582 19.1029L68.9634 21.5985C68.7617 21.534 68.5516 21.4998 68.3399 21.4969C67.9121 21.4973 67.4939 21.6244 67.1383 21.8624C66.7827 22.1003 66.5055 22.4383 66.342 22.8336C66.1784 23.229 66.1357 23.664 66.2192 24.0836C66.3028 24.5032 66.5089 24.8887 66.8114 25.1912C67.114 25.4938 67.4994 25.6998 67.919 25.7834C68.3387 25.8669 68.7736 25.8242 69.169 25.6606C69.5644 25.4971 69.9024 25.22 70.1403 24.8643C70.3782 24.5087 70.5054 24.0906 70.5057 23.6627C70.5029 23.451 70.4687 23.2409 70.4041 23.0392L72.8722 20.5703C73.677 21.1899 74.613 21.6171 75.6084 21.8191C76.6038 22.0211 77.6322 21.9926 78.6149 21.7357C79.5976 21.4789 80.5084 21.0005 81.2777 20.3372C82.0469 19.674 82.6541 18.8434 83.0528 17.9093C83.4515 16.9751 83.6311 15.962 83.5777 14.9478C83.5244 13.9335 83.2396 12.9448 82.7452 12.0576C82.2508 11.1704 81.5599 10.4081 80.7253 9.82914C79.8908 9.25019 78.9348 8.86994 77.9306 8.71752ZM76.9075 18.7068C76.4514 18.7194 75.9974 18.6404 75.5723 18.4745C75.1472 18.3086 74.7597 18.0592 74.4327 17.741C74.1056 17.4228 73.8456 17.0423 73.6681 16.622C73.4906 16.2016 73.3992 15.75 73.3992 15.2937C73.3992 14.8374 73.4906 14.3857 73.6681 13.9653C73.8456 13.545 74.1056 13.1645 74.4327 12.8463C74.7597 12.5281 75.1472 12.2787 75.5723 12.1128C75.9974 11.947 76.4514 11.868 76.9075 11.8805C77.7916 11.9115 78.6291 12.2843 79.2437 12.9205C79.8584 13.5567 80.2021 14.4066 80.2025 15.2911C80.203 16.1757 79.8601 17.0259 79.2461 17.6628C78.6322 18.2996 77.795 18.6732 76.911 18.7051" fill="#B4B9C9"/>
</svg>
