<svg width="86" height="24" viewBox="0 0 86 24" fill="none" xmlns="http://www.w3.org/2000/svg">
<path d="M20.2693 15.7932L20.2574 15.7553L27.804 8.84651V5.51769H15.6968V8.84651H22.9284L22.9403 8.87841L15.4675 15.7932V19.1221H27.9255V15.7932H20.2693Z" fill="#B4B9C9"/>
<path d="M35.3572 5.19992C33.9607 5.19992 32.8225 5.41055 31.9427 5.8318C31.1233 6.19892 30.4329 6.8038 29.9614 7.56796C29.5103 8.33716 29.227 9.19308 29.1303 10.0795L32.8038 10.5958C32.9367 9.81309 33.2026 9.2583 33.6011 8.93139C34.0544 8.58948 34.6128 8.41672 35.1798 8.44303C35.9253 8.44303 36.4662 8.64237 36.8024 9.04101C37.1353 9.43967 37.3047 9.99182 37.3047 10.7194V11.0822H33.7726C31.9746 11.0822 30.683 11.4808 29.8977 12.2781C29.1123 13.0755 28.7203 14.1279 28.7217 15.4355C28.7217 16.775 29.1136 17.7717 29.8977 18.4254C30.6816 19.0793 31.6677 19.4042 32.8558 19.4001C34.3294 19.4001 35.4629 18.8933 36.2562 17.8793C36.7247 17.2562 37.0593 16.543 37.2389 15.7844H37.3725L37.8788 19.1131H41.2076V10.6835C41.2076 8.94135 40.7484 7.5919 39.8303 6.63511C38.9119 5.67833 37.421 5.19992 35.3572 5.19992ZM36.5213 15.591C35.9931 16.0315 35.3015 16.2508 34.4404 16.2508C33.7307 16.2508 33.2377 16.1265 32.9613 15.878C32.8267 15.7605 32.7195 15.6147 32.6475 15.4511C32.5755 15.2874 32.5404 15.1099 32.5448 14.9312C32.5368 14.7627 32.5635 14.5943 32.6227 14.4363C32.6819 14.2783 32.7728 14.1341 32.8895 14.0123C33.0158 13.8938 33.1649 13.8022 33.3277 13.743C33.4905 13.6837 33.6634 13.658 33.8364 13.6675H37.3107V13.8967C37.3178 14.2207 37.2502 14.542 37.1134 14.8358C36.9764 15.1296 36.7739 15.388 36.5213 15.591Z" fill="#B4B9C9"/>
<path d="M61.3358 5.51769H57.4031V19.1239H61.3358V5.51769Z" fill="#B4B9C9"/>
<path d="M84.5546 5.51769C83.4437 5.51769 82.568 5.9097 81.9275 6.69375C81.4677 7.25719 81.1182 8.08973 80.879 9.19135H80.7634L80.2492 5.51769H76.8904V19.1221H80.8233V12.1454C80.8233 11.2657 81.0292 10.5913 81.4412 10.1222C81.853 9.65314 82.6131 9.41859 83.7214 9.41859H85.2144V5.51769H84.5546Z" fill="#B4B9C9"/>
<path d="M72.9898 5.96179C72.0716 5.41563 70.9136 5.14321 69.5155 5.14454C67.3151 5.14454 65.5928 5.7711 64.349 7.02422C63.1051 8.27734 62.4833 10.0049 62.4833 12.2068C62.4516 13.5381 62.7422 14.8572 63.3304 16.0519C63.8688 17.1165 64.7074 18 65.7423 18.5933C66.7841 19.1954 68.0233 19.497 69.4597 19.4982C70.7022 19.4982 71.7401 19.3069 72.5732 18.9243C73.3566 18.5806 74.0387 18.0418 74.5545 17.3595C75.0458 16.6897 75.4106 15.9358 75.6309 15.135L72.2424 14.1861C72.0998 14.7069 71.8251 15.182 71.4451 15.5655C71.0623 15.9482 70.4211 16.1396 69.5215 16.1396C68.4519 16.1396 67.6546 15.8333 67.1295 15.2207C66.7489 14.7782 66.5098 14.1463 66.404 13.327H75.6828C75.7207 12.9443 75.7406 12.6234 75.7406 12.3643V11.5171C75.763 10.3791 75.5279 9.25063 75.0529 8.21622C74.6083 7.27389 73.8891 6.48805 72.9898 5.96179ZM69.402 8.38763C70.9966 8.38763 71.9008 9.17232 72.1147 10.7417H66.4738C66.5634 10.2181 66.7803 9.72451 67.1058 9.30456C67.6226 8.69194 68.388 8.38631 69.402 8.38763Z" fill="#B4B9C9"/>
<path d="M59.4108 0.0338233C59.1149 0.0237614 58.8201 0.0732752 58.5437 0.179426C58.2673 0.285576 58.0153 0.446191 57.8022 0.651733C57.5923 0.859244 57.4276 1.10816 57.3188 1.38266C57.21 1.65717 57.1594 1.95128 57.1704 2.24636C57.1597 2.54334 57.2105 2.83931 57.3193 3.11582C57.4283 3.39235 57.5929 3.64346 57.8031 3.85349C58.0134 4.06353 58.2646 4.22798 58.5412 4.3366C58.8178 4.44523 59.1139 4.49568 59.4108 4.48481C59.7058 4.49597 60.0001 4.44553 60.2746 4.33674C60.5491 4.22796 60.798 4.06319 61.0054 3.85293C61.2111 3.64051 61.3717 3.38868 61.4775 3.11258C61.5834 2.83648 61.6323 2.54184 61.6213 2.24636C61.6348 1.95262 61.5871 1.65927 61.4809 1.38505C61.3748 1.11083 61.2127 0.861759 61.0049 0.653741C60.797 0.445723 60.5481 0.283329 60.274 0.176932C59.9998 0.0705351 59.7065 0.0224778 59.4128 0.0358185L59.4108 0.0338233Z" fill="#B4B9C9"/>
<path d="M51.2892 5.14453C49.9499 5.14453 48.8735 5.56511 48.0603 6.40627C47.4582 7.02952 47.0165 7.95974 46.7347 9.1969H46.6091L46.0949 5.52325H42.7361V23.0324H46.6688V15.8207H46.8124C46.9325 16.3015 47.1007 16.769 47.3147 17.2159C47.6474 17.944 48.193 18.5542 48.8795 18.9661C49.5912 19.3545 50.393 19.5478 51.2035 19.5262C52.8501 19.5262 54.1039 18.8851 54.965 17.6026C55.826 16.3203 56.2566 14.531 56.2566 12.2347C56.2566 10.0168 55.8401 8.28067 55.0068 7.02621C54.1736 5.77176 52.9345 5.14453 51.2892 5.14453ZM51.688 15.0034C51.2295 15.6678 50.512 16 49.5352 16C49.1326 16.0186 48.7311 15.941 48.3645 15.7736C47.9976 15.6062 47.6761 15.3538 47.4264 15.0373C46.9174 14.3981 46.6636 13.523 46.6649 12.4121V12.153C46.6649 11.0248 46.9187 10.161 47.4264 9.56168C47.934 8.96237 48.6369 8.66602 49.5352 8.67267C50.5293 8.67267 51.2514 8.98827 51.7019 9.61948C52.1524 10.2507 52.3777 11.1311 52.3777 12.2606C52.3804 13.4287 52.1517 14.3429 51.6919 15.0034H51.688Z" fill="#B4B9C9"/>
<path d="M13.945 15.793H0.338867V19.1258H13.945V15.793Z" fill="#B4B9C9"/>
</svg>
