<svg width="103" height="23" viewBox="0 0 103 23" fill="none" xmlns="http://www.w3.org/2000/svg">
<path d="M25.3501 18.9887V2.66884H35.3087V5.82752H29.123V10.2146H35.3087V13.3294H29.123V18.9887H25.3501Z" fill="#B4B9C9"/>
<path d="M37.8088 18.9894V7.7586H41.3624V10.0837C41.5378 9.29407 41.9327 8.63601 42.503 8.1973C43.0733 7.7586 43.7314 7.53925 44.4333 7.53925C44.7843 7.53925 45.1352 7.58312 45.3546 7.62699V10.9611C44.9159 10.9173 44.5649 10.8734 44.3017 10.8734C42.3275 10.8734 41.3624 12.1456 41.3624 14.6024V18.9456H37.8088V18.9894Z" fill="#B4B9C9"/>
<path d="M51.4981 19.2528C49.8749 19.2528 48.5588 18.6825 47.6375 17.5857C46.6723 16.489 46.2336 15.0412 46.2336 13.3303C46.2336 11.6193 46.7162 10.2155 47.6814 9.07484C48.6465 7.97808 49.9626 7.40776 51.542 7.40776C52.3317 7.40776 53.0336 7.58324 53.6478 7.93421C54.262 8.28517 54.7445 8.72388 55.0516 9.33806V7.71485H58.6052V18.9457H55.0516V17.3664C54.7445 17.9367 54.262 18.3754 53.6039 18.7264C52.9897 19.1212 52.2878 19.2528 51.4981 19.2528ZM52.5071 16.3135C53.3407 16.3135 54.0426 16.0503 54.4813 15.4799C54.92 14.9096 55.1833 14.2077 55.1833 13.3741C55.1833 12.5406 54.9639 11.8387 54.4813 11.2684C53.9988 10.698 53.3407 10.4348 52.5071 10.4348C51.7175 10.4348 51.0594 10.698 50.5768 11.2684C50.0943 11.7948 49.831 12.5406 49.831 13.3741C49.831 14.2516 50.0943 14.9535 50.5768 15.5238C51.0594 16.0503 51.7175 16.3135 52.5071 16.3135Z" fill="#B4B9C9"/>
<path d="M61.5435 18.9892V7.75832H65.097V9.38153C65.3602 8.81121 65.755 8.32864 66.3254 7.97767C66.8957 7.62671 67.5537 7.45123 68.2995 7.45123C70.0544 7.45123 71.2389 8.15315 71.8092 9.51314C72.1163 8.89895 72.5989 8.37251 73.2131 8.02154C73.8711 7.62671 74.573 7.45123 75.3627 7.45123C78.0388 7.45123 79.3549 8.98669 79.3549 12.0138V18.9892H75.7576V12.6718C75.7576 11.1802 75.1872 10.4783 74.0905 10.4783C72.8182 10.4783 72.204 11.3996 72.204 13.2421V19.033H68.6944V12.6279C68.6944 11.1802 68.1241 10.4344 67.0273 10.4344C66.4131 10.4344 65.9305 10.6538 65.6234 11.0486C65.3163 11.4434 65.1408 12.1892 65.1408 13.1983V18.9892H61.5435Z" fill="#B4B9C9"/>
<path d="M93.3062 12.7596C93.3062 13.2421 93.2623 13.7247 93.2184 14.3389H84.9269C84.9708 15.0847 85.1901 15.655 85.6727 16.0498C86.1553 16.4447 86.7695 16.664 87.5591 16.664C88.6559 16.664 89.3578 16.3131 89.6649 15.6111H93.1746C92.9991 16.7079 92.3849 17.6292 91.3759 18.2872C90.323 18.9892 89.0946 19.3401 87.603 19.3401C85.6727 19.3401 84.1811 18.8137 83.0843 17.7608C81.9876 16.7079 81.4172 15.2602 81.4172 13.3737C81.4172 11.5312 81.9876 10.0835 83.0843 9.03056C84.1811 7.97767 85.6727 7.45123 87.4714 7.45123C89.2262 7.45123 90.6301 7.9338 91.7268 8.94282C92.7359 9.90797 93.3062 11.1802 93.3062 12.7596ZM84.883 12.1015H89.7527C89.7527 11.3557 89.5333 10.7854 89.1385 10.3905C88.7436 9.99571 88.1733 9.77636 87.3836 9.77636C86.6378 9.77636 86.0237 9.99571 85.5849 10.4344C85.1462 10.8731 84.9269 11.4434 84.883 12.1015Z" fill="#B4B9C9"/>
<path d="M95.324 18.9894V7.7586H98.8775V10.0837C99.053 9.29407 99.4478 8.63601 100.018 8.1973C100.588 7.7586 101.247 7.53925 101.948 7.53925C102.299 7.53925 102.65 7.58312 102.87 7.62699V10.9611C102.431 10.9173 102.08 10.8734 101.817 10.8734C99.8427 10.8734 98.8775 12.1456 98.8775 14.6024V18.9456H95.324V18.9894Z" fill="#B4B9C9"/>
<path d="M15.3501 0.319618V7.65295H8.01671L0.68335 0.319618H15.3501ZM0.68335 7.65295H8.01671L15.3501 14.9863H8.01671V22.3196L0.68335 14.9863V7.65295Z" fill="#B4B9C9"/>
</svg>
