<svg width="70" height="29" viewBox="0 0 70 29" fill="none" xmlns="http://www.w3.org/2000/svg">
<path fill-rule="evenodd" clip-rule="evenodd" d="M69.9039 14.984C69.9039 10.028 67.5033 6.11749 62.915 6.11749C58.3074 6.11749 55.5196 10.028 55.5196 14.9453C55.5196 20.7724 58.8108 23.715 63.5345 23.715C65.8384 23.715 67.5807 23.1923 68.8972 22.4566V18.5848C67.5807 19.243 66.0707 19.6495 64.1541 19.6495C62.2762 19.6495 60.6112 18.9913 60.3983 16.7069H69.8652C69.8652 16.4553 69.9039 15.4486 69.9039 14.984ZM60.3402 13.1449C60.3402 10.9573 61.676 10.0474 62.8957 10.0474C64.0766 10.0474 65.335 10.9573 65.335 13.1449H60.3402ZM48.0467 6.11749C46.1495 6.11749 44.9298 7.00801 44.2522 7.6275L44.0005 6.42724H39.7414V29L44.5813 27.974L44.6007 22.4953C45.2976 22.9987 46.3237 23.715 48.0274 23.715C51.4928 23.715 54.6484 20.9272 54.6484 14.7904C54.6291 9.17624 51.4347 6.11749 48.0467 6.11749ZM46.8851 19.4559C45.7429 19.4559 45.0653 19.0494 44.6007 18.5461L44.5813 11.3638C45.0847 10.8024 45.7816 10.4152 46.8851 10.4152C48.6469 10.4152 49.8665 12.3899 49.8665 14.9259C49.8665 17.52 48.6662 19.4559 46.8851 19.4559ZM33.0816 4.9753L37.9409 3.92991V0L33.0816 1.02603V4.9753ZM33.0816 6.4466H37.9409V23.3858H33.0816V6.4466ZM27.8738 7.87917L27.5641 6.4466H23.3824V23.3858H28.2223V11.9059C29.3646 10.4152 31.3005 10.6862 31.9007 10.8992V6.4466C31.2812 6.21429 29.0161 5.78838 27.8738 7.87917ZM18.194 2.24566L13.4702 3.25234L13.4508 18.759C13.4508 21.6242 15.5998 23.7343 18.465 23.7343C20.0525 23.7343 21.2141 23.4439 21.853 23.0955V19.1656C21.2334 19.4172 18.1746 20.3077 18.1746 17.4426V10.5701H21.853V6.4466H18.1746L18.194 2.24566ZM5.10676 11.3638C5.10676 10.6088 5.72627 10.3184 6.75234 10.3184C8.22369 10.3184 10.0822 10.7637 11.5536 11.5574V7.00801C9.9467 6.36916 8.3592 6.11749 6.75234 6.11749C2.82231 6.11749 0.20874 8.16956 0.20874 11.5961C0.20874 16.9393 7.56545 16.0875 7.56545 18.3912C7.56545 19.2817 6.79106 19.5721 5.70691 19.5721C4.10005 19.5721 2.04792 18.9139 0.421697 18.0234V22.6308C2.22216 23.4052 4.04197 23.7343 5.70691 23.7343C9.73375 23.7343 12.5022 21.7403 12.5022 18.275C12.4828 12.506 5.10676 13.532 5.10676 11.3638Z" fill="#B4B9C9"/>
</svg>
