<svg width="108" height="22" viewBox="0 0 108 22" fill="none" xmlns="http://www.w3.org/2000/svg">
<path d="M12.8087 4.76934L6.62053 8.71918L12.8087 12.669L6.62053 16.6189L0.432373 12.6361L6.62053 8.68627L0.432373 4.76934L6.62053 0.819496L12.8087 4.76934ZM6.58761 17.8697L12.7758 13.9198L18.9639 17.8697L12.7758 21.8195L6.58761 17.8697ZM12.8087 12.6361L18.9968 8.68627L12.8087 4.76934L18.9639 0.819496L25.1521 4.76934L18.9639 8.71918L25.1521 12.669L18.9639 16.6189L12.8087 12.6361Z" fill="#B4B9C9"/>
<path d="M29.9897 4.76978H34.9929C38.1858 4.76978 40.819 6.61304 40.819 10.8262V11.7149C40.819 15.961 38.3503 17.8701 35.0917 17.8701H29.9897V4.76978ZM32.7876 7.13968V15.4673H34.9271C36.7375 15.4673 37.9554 14.2823 37.9554 11.6491V10.9579C37.9554 8.32464 36.6716 7.13968 34.8284 7.13968H32.7876ZM42.3002 7.27134H44.5385L44.9006 9.74C45.3285 8.06131 46.4147 7.1726 48.3896 7.1726H49.0809V10.0033H47.9288C45.6576 10.0033 45.0981 10.7933 45.0981 13.0315V17.903H42.3331V7.27134H42.3002ZM49.6404 12.8011V12.5049C49.6404 8.95003 51.9116 7.00802 55.0057 7.00802C58.1656 7.00802 60.371 8.95003 60.371 12.5049V12.8011C60.371 16.2902 58.2314 18.1663 55.0057 18.1663C51.5825 18.1334 49.6404 16.2902 49.6404 12.8011ZM57.5402 12.7682V12.5049C57.5402 10.53 56.5527 9.34501 54.9728 9.34501C53.4257 9.34501 52.4054 10.4312 52.4054 12.5049V12.7682C52.4054 14.6773 53.3928 15.7635 54.9728 15.7635C56.5527 15.7306 57.5402 14.6773 57.5402 12.7682ZM61.8193 7.27134H64.1234L64.3867 9.27918C64.9463 7.92965 66.1312 7.00802 67.8758 7.00802C70.5748 7.00802 72.3523 8.95003 72.3523 12.5378V12.834C72.3523 16.3231 70.3773 18.1663 67.8758 18.1663C66.197 18.1663 65.045 17.4093 64.4854 16.1914V21.5566H61.7863L61.8193 7.27134ZM69.5545 12.7682V12.5378C69.5545 10.4312 68.4682 9.37793 67.0199 9.37793C65.4729 9.37793 64.4525 10.5629 64.4525 12.5378V12.7353C64.4525 14.6115 65.44 15.7964 66.987 15.7964C68.567 15.7635 69.5545 14.7431 69.5545 12.7682ZM76.4338 15.9281L76.2034 17.8701H73.8335V3.71648H76.5326V9.14752C77.1251 7.76507 78.31 7.00802 79.9887 7.00802C82.5233 7.04094 84.3995 8.78545 84.3995 12.3074V12.6365C84.3995 16.1585 82.622 18.1663 79.9229 18.1663C78.1455 18.1334 76.9934 17.3105 76.4338 15.9281ZM81.5687 12.6365V12.3732C81.5687 10.4312 80.5154 9.34501 79.0342 9.34501C77.5201 9.34501 76.4668 10.5629 76.4668 12.4061V12.6365C76.4668 14.6115 77.4871 15.7635 79.0013 15.7635C80.6141 15.7635 81.5687 14.7431 81.5687 12.6365ZM85.5844 12.8011V12.5049C85.5844 8.95003 87.8556 7.00802 90.9497 7.00802C94.1096 7.00802 96.3149 8.95003 96.3149 12.5049V12.8011C96.3149 16.2902 94.1425 18.1663 90.9497 18.1663C87.5264 18.1334 85.5844 16.2902 85.5844 12.8011ZM93.5171 12.7682V12.5049C93.5171 10.53 92.5296 9.34501 90.9497 9.34501C89.4026 9.34501 88.3823 10.4312 88.3823 12.5049V12.7682C88.3823 14.6773 89.3697 15.7635 90.9497 15.7635C92.5296 15.7306 93.5171 14.6773 93.5171 12.7682ZM99.9357 12.3732L96.2162 7.27134H99.409L101.549 10.4641L103.721 7.27134H106.881L103.096 12.3403L107.078 17.8701H103.951L101.516 14.3481L99.1457 17.8701H95.887L99.9357 12.3732Z" fill="#B4B9C9"/>
</svg>
