<svg width="83" height="23" viewBox="0 0 83 23" fill="none" xmlns="http://www.w3.org/2000/svg">
<path d="M55.316 0.106567H51.8679V19.3909C55.0015 19.4987 58.1219 19.6568 61.2298 19.864V16.4665C59.2638 16.3354 57.2928 16.2242 55.316 16.1322V0.106567ZM82.7187 0.108518H78.9309L76.4342 5.89554L74.1912 0.108518H70.4602L74.4695 10.4491L70.093 20.5936C71.3037 20.7117 72.511 20.8377 73.7172 20.9709L76.2627 15.0725L78.7835 21.5746C80.0964 21.7434 81.4058 21.9196 82.713 22.1061L82.7187 22.1039L78.2269 10.519L82.7187 0.108518ZM40.0315 19.2224L43.4798 19.2216V11.3773H48.1541V7.97977H43.4798V3.5368H49.6575V0.108691H40.0315V19.2224ZM27.1551 3.53657H30.764V19.4244C31.9114 19.381 33.0612 19.3453 34.2121 19.3152V3.53657H37.8209V0.108518H27.1551V3.53657ZM15.3665 20.4118C18.5446 20.123 21.7374 19.885 24.9446 19.7003V16.3024C22.8954 16.4208 20.8521 16.5611 18.8147 16.7213V11.5775C20.1515 11.5642 21.9118 11.5234 23.4713 11.5428V8.14497C22.2254 8.14193 20.223 8.16236 18.8147 8.18038V3.5368H24.9446V0.108691H15.3665V20.4118ZM8.60256 12.5572L4.11156 0.108518H0.834473V22.1066C1.98165 21.9433 3.13101 21.7869 4.28261 21.6369V9.67443L8.27588 21.1457C9.53186 21.0001 10.7901 20.8621 12.0508 20.7324V0.108518H8.60256V12.5572ZM64.0725 20.0686C65.2235 20.1567 66.3729 20.2512 67.5211 20.3533V0.108518H64.0725V20.0686Z" fill="#B4B9C9"/>
</svg>
