<svg width="88" height="23" viewBox="0 0 88 23" fill="none" xmlns="http://www.w3.org/2000/svg">
<path d="M28.0955 17.8561L29.1815 15.3338C30.3551 16.2096 31.9141 16.665 33.4555 16.665C34.5941 16.665 35.3123 16.2271 35.3123 15.5615C35.2948 13.7048 28.4983 15.1586 28.4458 10.4994C28.4283 8.13468 30.5303 6.31301 33.5081 6.31301C35.2773 6.31301 37.0465 6.75091 38.3077 7.74933L37.2917 10.3242C36.1356 9.58852 34.6992 9.06303 33.3329 9.06303C32.4046 9.06303 31.7915 9.50093 31.7915 10.0614C31.809 11.8831 38.658 10.8847 38.7281 15.3338C38.7281 17.751 36.6786 19.4501 33.7358 19.4501C31.5813 19.4501 29.6019 18.9421 28.0955 17.8561Z" fill="#B4B9C9"/>
<path d="M69.7676 14.4229C69.2246 15.3688 68.2087 16.0169 67.035 16.0169C65.3009 16.0169 63.8996 14.6156 63.8996 12.8815C63.8996 11.1474 65.3009 9.74616 67.035 9.74616C68.2087 9.74616 69.2246 10.3943 69.7676 11.3401L72.763 9.67609C71.6419 7.67926 69.4874 6.31301 67.035 6.31301C63.4091 6.31301 60.4663 9.25571 60.4663 12.8815C60.4663 16.5074 63.4091 19.4501 67.035 19.4501C69.5049 19.4501 71.6419 18.1013 72.763 16.087L69.7676 14.4229Z" fill="#B4B9C9"/>
<path d="M40.2361 0.865321H43.9846V19.2046H40.2361V0.865321Z" fill="#B4B9C9"/>
<path d="M74.2339 0.865321V19.2046H77.9824V13.7046L82.4317 19.2046H87.2312L81.5734 12.6711L86.8108 6.57556H82.2215L77.9824 11.6377V0.865321H74.2339Z" fill="#B4B9C9"/>
<path d="M55.1237 14.458C54.5807 15.3513 53.4596 16.0169 52.1984 16.0169C50.4643 16.0169 49.063 14.6156 49.063 12.8815C49.063 11.1474 50.4643 9.74616 52.1984 9.74616C53.4596 9.74616 54.5807 10.4468 55.1237 11.3576V14.458ZM55.1237 6.57575V8.06462C54.5106 7.03117 52.9867 6.31301 51.3927 6.31301C48.0995 6.31301 45.5071 9.22068 45.5071 12.864C45.5071 16.5074 48.0995 19.4501 51.3927 19.4501C52.9867 19.4501 54.5106 18.7319 55.1237 17.6985V19.1873H58.8723V6.57575H55.1237Z" fill="#B4B9C9"/>
<path d="M4.92102 14.4402C4.92102 15.7188 3.88754 16.7523 2.60883 16.7523C1.33011 16.7523 0.296631 15.7188 0.296631 14.4402C0.296631 13.1615 1.33011 12.128 2.60883 12.128H4.92102V14.4402Z" fill="#B4B9C9"/>
<path d="M6.07764 14.4402C6.07764 13.1615 7.11112 12.128 8.38983 12.128C9.66855 12.128 10.702 13.1615 10.702 14.4402V20.2205C10.702 21.4991 9.66855 22.5326 8.38983 22.5326C7.11112 22.5326 6.07764 21.4991 6.07764 20.2205V14.4402Z" fill="#B4B9C9"/>
<path d="M8.38983 5.15679C7.11112 5.15679 6.07764 4.12334 6.07764 2.84467C6.07764 1.56599 7.11112 0.532547 8.38983 0.532547C9.66855 0.532547 10.702 1.56599 10.702 2.84467V5.15679H8.38983Z" fill="#B4B9C9"/>
<path d="M8.38974 6.33053C9.66845 6.33053 10.7019 7.36397 10.7019 8.64265C10.7019 9.92132 9.66845 10.9548 8.38974 10.9548H2.59174C1.31302 10.9548 0.279541 9.92132 0.279541 8.64265C0.279541 7.36397 1.31302 6.33053 2.59174 6.33053H8.38974Z" fill="#B4B9C9"/>
<path d="M17.6567 8.64265C17.6567 7.36397 18.6902 6.33053 19.9689 6.33053C21.2476 6.33053 22.2811 7.36397 22.2811 8.64265C22.2811 9.92132 21.2476 10.9548 19.9689 10.9548H17.6567V8.64265Z" fill="#B4B9C9"/>
<path d="M16.5001 8.64248C16.5001 9.92116 15.4666 10.9546 14.1879 10.9546C12.9092 10.9546 11.8757 9.92116 11.8757 8.64248V2.84467C11.8757 1.56599 12.9092 0.532547 14.1879 0.532547C15.4666 0.532547 16.5001 1.56599 16.5001 2.84467V8.64248Z" fill="#B4B9C9"/>
<path d="M14.1877 17.9083C15.4664 17.9083 16.4999 18.9417 16.4999 20.2204C16.4999 21.4991 15.4664 22.5325 14.1877 22.5325C12.909 22.5325 11.8755 21.4991 11.8755 20.2204V17.9083H14.1877Z" fill="#B4B9C9"/>
<path d="M14.1877 16.7523C12.909 16.7523 11.8755 15.7188 11.8755 14.4402C11.8755 13.1615 12.909 12.128 14.1877 12.128H19.9857C21.2644 12.128 22.2979 13.1615 22.2979 14.4402C22.2979 15.7188 21.2644 16.7523 19.9857 16.7523H14.1877Z" fill="#B4B9C9"/>
</svg>
