<svg width="90" height="23" viewBox="0 0 90 23" fill="none" xmlns="http://www.w3.org/2000/svg">
<path fill-rule="evenodd" clip-rule="evenodd" d="M0.20752 5.12864L9.88081 0.106567L19.658 5.12864L9.88081 10.1633L0.20752 5.12864ZM58.279 7.56729V7.44599C58.279 5.79341 59.2511 5.26342 60.8885 5.38081V2.35913C56.966 2.12001 55.1069 4.08518 55.1069 7.44599V7.56729H53.333V10.5894H55.1069V19.7371H58.279V10.5894H61.9289V19.7371H65.101V10.5894H67.7105V7.56729H65.101V7.44599C65.101 5.79341 66.0562 5.26342 67.7105 5.38081V2.35913C63.788 2.12001 61.9289 4.08518 61.9289 7.44599V7.56729H58.279ZM36.1068 10.8764C37.1129 10.0764 37.7268 8.93291 37.7268 7.46338C37.7268 4.61517 35.4073 2.66782 32.4908 2.66782H25.7196V19.7023H33.0364C36.0212 19.7023 38.4089 17.6893 38.4089 14.7719C38.375 13.0111 37.4881 11.6629 36.1068 10.8764ZM32.5077 5.82428C33.5995 5.82428 34.3499 6.62818 34.3499 7.7025C34.3499 8.78031 33.5651 9.58029 32.5077 9.58029H29.1139V5.82428H32.5077ZM33.0195 16.5806H29.1139V12.5672H33.0195C34.1795 12.5672 35.0151 13.4193 35.0151 14.5628C35.0151 15.7241 34.1795 16.5806 33.0195 16.5806ZM48.3013 7.5499V14.1198C48.3013 16.2371 47.1418 17.1414 45.5897 17.1414C44.1566 17.1414 43.1506 16.2893 43.1506 14.6324V7.5499H39.978V15.0241C39.978 18.2675 42.008 20.0631 44.6345 20.0631C46.2888 20.0631 47.5679 19.4458 48.2844 18.3545V19.7197H51.4565V7.5499H48.3013ZM80.8603 14.9237H71.5826C72.0431 16.5284 73.373 17.211 75.0278 17.211C76.2725 17.211 77.2621 16.6975 77.7908 15.998L80.349 17.4501C79.2064 19.1062 77.3643 20.0631 74.9934 20.0631C70.8661 20.0631 68.2566 17.2632 68.2566 13.6285C68.2566 9.98942 70.8831 7.18904 74.7547 7.18904C78.3877 7.18904 80.9803 10.0416 80.9803 13.6285C80.9803 14.1024 80.929 14.5154 80.8603 14.9237ZM74.7547 10.0416C73.0496 10.0416 71.8891 10.9459 71.5309 12.4976H77.8077C77.4151 10.7416 76.0851 10.0416 74.7547 10.0416ZM85.568 9.64986V7.5499H82.3959V19.7197H85.568V13.898C85.568 11.3368 87.6493 10.6068 89.3031 10.8107V7.31121C87.7514 7.31121 86.1993 7.9938 85.568 9.64986ZM9.88081 18.7762L3.28137 15.1893L0.20752 16.8545L9.88081 22.1066L19.658 16.8545L16.5494 15.1893L9.88081 18.7762ZM3.28137 9.5329L9.88081 12.7846L16.5494 9.5329L19.658 11.0503L9.88081 15.8197L0.20752 11.0503L3.28137 9.5329Z" fill="#B4B9C9"/>
</svg>
