<svg width="48" height="48" viewBox="0 0 48 48" fill="none" xmlns="http://www.w3.org/2000/svg">
<rect width="48" height="48" rx="24" fill="white"/>
<path d="M27.3998 21.88L22.8098 17.29C22.6224 17.1037 22.369 16.9992 22.1048 16.9992C21.8406 16.9992 21.5872 17.1037 21.3998 17.29C21.3061 17.383 21.2317 17.4936 21.1809 17.6154C21.1301 17.7373 21.104 17.868 21.104 18C21.104 18.132 21.1301 18.2627 21.1809 18.3846C21.2317 18.5064 21.3061 18.617 21.3998 18.71L25.9998 23.29C26.0935 23.383 26.1679 23.4936 26.2187 23.6154C26.2695 23.7373 26.2956 23.868 26.2956 24C26.2956 24.132 26.2695 24.2627 26.2187 24.3846C26.1679 24.5064 26.0935 24.617 25.9998 24.71L21.3998 29.29C21.2115 29.477 21.1052 29.7311 21.1042 29.9965C21.1033 30.2618 21.2078 30.5167 21.3948 30.705C21.5818 30.8933 21.8359 30.9996 22.1013 31.0006C22.3666 31.0015 22.6215 30.897 22.8098 30.71L27.3998 26.12C27.9616 25.5575 28.2772 24.795 28.2772 24C28.2772 23.205 27.9616 22.4425 27.3998 21.88Z" fill="#3A4F39"/>
</svg>
