<svg width="41" height="42" viewBox="0 0 41 42" fill="none" xmlns="http://www.w3.org/2000/svg">
<path d="M39.7841 15.2501L14.75 40.2823C14.483 40.5494 14.1661 40.7612 13.8172 40.9057C13.4684 41.0502 13.0945 41.1246 12.7169 41.1246C12.3392 41.1246 11.9653 41.0502 11.6165 40.9057C11.2676 40.7612 10.9507 40.5494 10.6837 40.2823L1.21596 30.8164C0.948919 30.5494 0.73709 30.2324 0.592566 29.8836C0.448043 29.5347 0.373657 29.1608 0.373657 28.7832C0.373657 28.4056 0.448043 28.0317 0.592566 27.6829C0.73709 27.334 0.948919 27.017 1.21596 26.7501L6.45744 21.5086C6.52419 21.4417 6.60346 21.3887 6.69072 21.3526C6.77797 21.3164 6.8715 21.2978 6.96596 21.2978C7.06041 21.2978 7.15394 21.3164 7.2412 21.3526C7.32845 21.3887 7.40772 21.4417 7.47447 21.5086L13.733 27.7671C13.8727 27.9068 14.0398 28.0161 14.2237 28.0883C14.4076 28.1606 14.6044 28.1941 14.8019 28.1868C14.9993 28.1796 15.1932 28.1317 15.3713 28.0462C15.5494 27.9607 15.708 27.8394 15.8371 27.6898C16.0732 27.405 16.1932 27.0417 16.1732 26.6724C16.1533 26.303 15.9947 25.9547 15.7293 25.6971L9.50674 19.4745C9.37232 19.3398 9.29684 19.1572 9.29684 18.9669C9.29684 18.7766 9.37232 18.594 9.50674 18.4593L12.2021 15.764C12.2688 15.6971 12.3481 15.6441 12.4353 15.6079C12.5226 15.5718 12.6161 15.5532 12.7106 15.5532C12.805 15.5532 12.8986 15.5718 12.9858 15.6079C13.0731 15.6441 13.1523 15.6971 13.2191 15.764L19.4776 22.0225C19.6174 22.1621 19.7844 22.2715 19.9683 22.3437C20.1522 22.4159 20.3491 22.4495 20.5465 22.4422C20.744 22.435 20.9378 22.3871 21.1159 22.3016C21.294 22.2161 21.4526 22.0948 21.5817 21.9452C21.8178 21.6604 21.9378 21.2971 21.9179 20.9277C21.8979 20.5584 21.7393 20.2101 21.4739 19.9525L15.2585 13.7245C15.1241 13.5898 15.0486 13.4072 15.0486 13.2169C15.0486 13.0266 15.1241 12.844 15.2585 12.7093L17.9538 10.014C18.0886 9.87954 18.2711 9.80406 18.4615 9.80406C18.6518 9.80406 18.8343 9.87954 18.9691 10.014L25.2276 16.2725C25.3674 16.4124 25.5345 16.522 25.7186 16.5944C25.9027 16.6668 26.0997 16.7004 26.2974 16.6932C26.4951 16.6859 26.6891 16.638 26.8674 16.5523C27.0457 16.4666 27.2044 16.345 27.3335 16.1952C27.5694 15.9102 27.6891 15.5468 27.6688 15.1774C27.6485 14.808 27.4896 14.4599 27.2239 14.2025L21.0085 7.97451C20.8741 7.83977 20.7986 7.65721 20.7986 7.46689C20.7986 7.27657 20.8741 7.09401 21.0085 6.95927L26.25 1.71779C26.517 1.45075 26.834 1.23892 27.1828 1.0944C27.5317 0.949874 27.9056 0.875488 28.2832 0.875488C28.6608 0.875488 29.0347 0.949874 29.3836 1.0944C29.7324 1.23892 30.0494 1.45075 30.3163 1.71779L39.7841 11.1837C40.0511 11.4507 40.263 11.7677 40.4075 12.1165C40.552 12.4654 40.6264 12.8393 40.6264 13.2169C40.6264 13.5945 40.552 13.9684 40.4075 14.3173C40.263 14.6661 40.0511 14.9831 39.7841 15.2501Z" fill="white"/>
</svg>
