<svg width="38" height="39" viewBox="0 0 38 39" fill="none" xmlns="http://www.w3.org/2000/svg">
<path d="M29 2.31251C29.0005 2.02782 28.9164 1.7494 28.7585 1.51253C28.6006 1.27566 28.3759 1.09102 28.1129 0.982004C27.8499 0.872991 27.5605 0.84452 27.2813 0.900199C27.0021 0.955879 26.7458 1.0932 26.5447 1.29476L20.7947 7.04476C20.6613 7.1785 20.5556 7.33723 20.4836 7.51186C20.4115 7.68649 20.3746 7.87361 20.375 8.06251V16.0924L18.2446 18.2199C17.8184 18.1068 17.372 18.093 16.9396 18.1797C16.5073 18.2663 16.1006 18.451 15.751 18.7196C15.4013 18.9882 15.1179 19.3335 14.9227 19.7288C14.7275 20.1242 14.6256 20.5591 14.625 21C14.6252 21.4092 14.7127 21.8136 14.8817 22.1862C15.0507 22.5588 15.2972 22.8911 15.6049 23.1607C15.9126 23.4304 16.2743 23.6313 16.6659 23.75C17.0574 23.8687 17.4698 23.9025 17.8755 23.8491C18.2811 23.7956 18.6707 23.6562 19.0181 23.4402C19.3656 23.2241 19.6629 22.9364 19.8903 22.5962C20.1176 22.256 20.2697 21.8712 20.3365 21.4676C20.4032 21.0639 20.383 20.6506 20.2772 20.2554L22.4076 18.125H30.4375C30.6264 18.1253 30.8135 18.0884 30.9881 18.0164C31.1627 17.9444 31.3215 17.8387 31.4552 17.7053L37.2052 11.9553C37.4068 11.7542 37.5441 11.4978 37.5998 11.2187C37.6555 10.9395 37.627 10.65 37.518 10.3871C37.409 10.1241 37.2243 9.89937 36.9874 9.74145C36.7506 9.58353 36.4721 9.4995 36.1875 9.50001H29V2.31251ZM34.589 18.6368C35.0837 22.2166 34.4416 25.8614 32.7533 29.0567C31.065 32.252 28.4159 34.8364 25.1797 36.445C21.9436 38.0536 18.284 38.6053 14.7175 38.022C11.151 37.4388 7.85773 35.7502 5.30258 33.1946C2.74743 30.6389 1.05945 27.3453 0.476932 23.7787C-0.10559 20.2121 0.446761 16.5526 2.05602 13.3168C3.66527 10.081 6.25015 7.43229 9.44576 5.74464C12.6414 4.05699 16.2863 3.4156 19.8661 3.91101L18.765 5.01213C18.3641 5.41255 18.046 5.88804 17.8289 6.41144C17.6119 6.93484 17.5001 7.49589 17.5 8.06251C14.9412 8.06251 12.4398 8.82128 10.3123 10.2429C8.18471 11.6645 6.52648 13.685 5.54728 16.049C4.56807 18.4131 4.31186 21.0144 4.81106 23.524C5.31025 26.0336 6.54243 28.3389 8.35177 30.1482C10.1611 31.9575 12.4664 33.1897 14.976 33.6889C17.4856 34.1881 20.0869 33.9319 22.4509 32.9527C24.815 31.9735 26.8355 30.3153 28.2571 28.1877C29.6787 26.0601 30.4375 23.5588 30.4375 21C31.5808 20.999 32.677 20.544 33.485 19.735L34.589 18.6368ZM17.5 10.9375C15.5098 10.9375 13.5643 11.5277 11.9095 12.6333C10.2548 13.739 8.96504 15.3106 8.20343 17.1493C7.44182 18.9879 7.24255 21.0112 7.63082 22.9631C8.01908 24.915 8.97744 26.708 10.3847 28.1153C11.792 29.5225 13.5849 30.4809 15.5369 30.8692C17.4888 31.2574 19.512 31.0582 21.3507 30.2965C23.1894 29.5349 24.7609 28.2452 25.8666 26.5904C26.9723 24.9357 27.5625 22.9902 27.5625 21H23.5978L23.2385 21.3594C23.1694 22.4639 22.783 23.525 22.1257 24.4153C21.4685 25.3056 20.5682 25.9874 19.5331 26.3787C18.4979 26.7701 17.3718 26.8544 16.29 26.6216C15.2081 26.3888 14.2164 25.8487 13.4338 25.0661C12.6513 24.2836 12.1112 23.2919 11.8784 22.21C11.6456 21.1281 11.7299 20.002 12.1212 18.9669C12.5126 17.9317 13.1943 17.0315 14.0847 16.3743C14.975 15.717 16.0361 15.3306 17.1406 15.2615L17.5 14.9021V10.9375Z" fill="white"/>
</svg>
