<svg width="47" height="42" viewBox="0 0 47 42" fill="none" xmlns="http://www.w3.org/2000/svg">
<path fill-rule="evenodd" clip-rule="evenodd" d="M7.39989 41.6H39.6C42.1898 41.6 44.0298 40.4707 45.1476 38.9182C46.178 37.4853 46.5 35.8362 46.5 34.7V20.9C46.5 20.29 46.2577 19.705 45.8263 19.2736C45.395 18.8423 44.81 18.6 44.2 18.6H37.3V7.09997C37.3 5.26997 36.573 3.51492 35.279 2.22092C33.985 0.926915 32.2299 0.199951 30.3999 0.199951H7.39989C5.5699 0.199951 3.81485 0.926915 2.52085 2.22092C1.22684 3.51492 0.499878 5.26997 0.499878 7.09997V34.7C0.499878 35.8339 0.821879 37.4853 1.85228 38.9182C2.97008 40.473 4.81009 41.6 7.39989 41.6ZM39.6 23.2C40.21 23.2 40.795 23.4423 41.2263 23.8737C41.6577 24.305 41.9 24.89 41.9 25.5V34.7C41.9 35.31 41.6577 35.895 41.2263 36.3264C40.795 36.7577 40.21 37 39.6 37C38.99 37 38.4049 36.7577 37.9736 36.3264C37.5423 35.895 37.3 35.31 37.3 34.7V25.5C37.3 24.89 37.5423 24.305 37.9736 23.8737C38.4049 23.4423 38.99 23.2 39.6 23.2ZM16.5999 16.3C16.5999 15.69 16.8422 15.105 17.2736 14.6736C17.7049 14.2423 18.2899 14 18.8999 14C19.5099 14 20.0949 14.2423 20.5263 14.6736C20.9576 15.105 21.1999 15.69 21.1999 16.3C21.1999 16.91 20.9576 17.495 20.5263 17.9263C20.0949 18.3577 19.5099 18.6 18.8999 18.6C18.2899 18.6 17.7049 18.3577 17.2736 17.9263C16.8422 17.495 16.5999 16.91 16.5999 16.3ZM18.8999 9.39997C17.0699 9.39997 15.3149 10.1269 14.0209 11.4209C12.7269 12.7149 11.9999 14.47 11.9999 16.3C11.9999 18.13 12.7269 19.885 14.0209 21.179C15.3149 22.473 17.0699 23.2 18.8999 23.2C20.7299 23.2 22.485 22.473 23.779 21.179C25.073 19.885 25.7999 18.13 25.7999 16.3C25.7999 14.47 25.073 12.7149 23.779 11.4209C22.485 10.1269 20.7299 9.39997 18.8999 9.39997ZM11.9999 27.8C11.3899 27.8 10.8049 28.0423 10.3736 28.4737C9.94222 28.905 9.6999 29.49 9.6999 30.1C9.6999 30.71 9.94222 31.295 10.3736 31.7264C10.8049 32.1577 11.3899 32.4 11.9999 32.4H25.7999C26.4099 32.4 26.9949 32.1577 27.4263 31.7264C27.8576 31.295 28.0999 30.71 28.0999 30.1C28.0999 29.49 27.8576 28.905 27.4263 28.4737C26.9949 28.0423 26.4099 27.8 25.7999 27.8H11.9999Z" fill="white"/>
</svg>
