<svg width="39" height="38" viewBox="0 0 39 38" fill="none" xmlns="http://www.w3.org/2000/svg">
<path d="M19.65 0.599976C19.345 0.599976 19.0525 0.721136 18.8368 0.936803C18.6211 1.15247 18.5 1.44498 18.5 1.74998V7.72998C18.5 10.8971 20.6321 13.5628 23.537 14.377C23.031 20.679 21.2094 25.3825 19.7167 28.2828C20.1399 28.7796 20.5378 29.1499 20.8483 29.4098C22.042 30.408 23.1 32.0341 23.1 34.0627C23.1015 35.2636 22.7178 36.4333 22.0052 37.4H34.6C35.515 37.4 36.3925 37.0365 37.0395 36.3895C37.6865 35.7425 38.05 34.865 38.05 33.95V33.2439C38.05 32.4435 37.7763 31.7052 37.3554 31.1003C36.1134 29.3132 32.5967 23.5333 31.8607 14.3747C33.3104 13.9683 34.5875 13.099 35.4973 11.8994C36.4071 10.6998 36.8997 9.23558 36.9 7.72998V1.74998C36.9 1.44498 36.7788 1.15247 36.5631 0.936803C36.3475 0.721136 36.055 0.599976 35.75 0.599976H34.025C33.5675 0.599976 33.1287 0.781716 32.8052 1.10522C32.4817 1.42872 32.3 1.86748 32.3 2.32498V4.04998C32.3003 4.201 32.2708 4.3506 32.2133 4.49024C32.1558 4.62988 32.0713 4.75682 31.9648 4.86382C31.7495 5.07992 31.4573 5.20167 31.1523 5.20228C30.8473 5.20289 30.5545 5.08231 30.3384 4.86707C30.1223 4.65184 30.0006 4.35957 30 4.05458V4.04998L29.9908 2.31578C29.9883 1.85987 29.8055 1.42347 29.4823 1.10196C29.1591 0.780446 28.7217 0.599969 28.2658 0.599976H27.1342C26.6783 0.599969 26.2409 0.780446 25.9177 1.10196C25.5944 1.42347 25.4116 1.85987 25.4092 2.31578L25.4 4.05458C25.3994 4.35957 25.2776 4.65184 25.0615 4.86707C24.8454 5.08231 24.5527 5.20289 24.2477 5.20228C23.9427 5.20167 23.6504 5.07992 23.4352 4.86382C23.2199 4.64772 23.0994 4.35497 23.1 4.04998V2.32498C23.1 1.86748 22.9182 1.42872 22.5947 1.10522C22.2712 0.781716 21.8325 0.599976 21.375 0.599976H19.65ZM10.45 7.49998C9.118 7.50001 7.8145 7.88556 6.69682 8.6101C5.57914 9.33465 4.69506 10.3672 4.15129 11.5831C3.60753 12.7991 3.42732 14.1464 3.63243 15.4625C3.83754 16.7786 4.41919 18.0072 5.30718 19H4.69998C4.08998 19 3.50496 19.2423 3.07363 19.6736C2.6423 20.105 2.39998 20.69 2.39998 21.3C2.39998 21.91 2.6423 22.495 3.07363 22.9263C3.50496 23.3577 4.08998 23.6 4.69998 23.6H5.89598C5.04038 27.7354 2.78408 30.1228 1.52598 31.1739C0.730175 31.8409 0.0999756 32.8667 0.0999756 34.0627C0.0999756 35.905 1.59498 37.4 3.43728 37.4H17.465C19.305 37.4 20.8 35.905 20.8 34.0627C20.8 32.8667 20.1698 31.8409 19.374 31.1739C18.1159 30.1228 15.8596 27.7354 15.004 23.6H16.2C16.81 23.6 17.395 23.3577 17.8263 22.9263C18.2577 22.495 18.5 21.91 18.5 21.3C18.5 20.69 18.2577 20.105 17.8263 19.6736C17.395 19.2423 16.81 19 16.2 19H15.5928C16.4808 18.0072 17.0624 16.7786 17.2675 15.4625C17.4726 14.1464 17.2924 12.7991 16.7487 11.5831C16.2049 10.3672 15.3208 9.33465 14.2031 8.6101C13.0855 7.88556 11.782 7.50001 10.45 7.49998Z" fill="white"/>
</svg>
